<?xml version="1.0" encoding="UTF-8"?>
<svg width="110px" height="43px" viewBox="0 0 110 43" version="1.1" xmlns="http://www.w3.org/2000/svg" xmlns:xlink="http://www.w3.org/1999/xlink">
    <title>logo的副本</title>
    <defs>
        <linearGradient x1="3.52353554%" y1="102.416238%" x2="98.8673924%" y2="-3.60672617%" id="linearGradient-1">
            <stop stop-color="#003EFF" offset="0%"></stop>
            <stop stop-color="#FF257B" offset="50%"></stop>
            <stop stop-color="#FFB700" offset="100%"></stop>
        </linearGradient>
    </defs>
    <g id="页面-1" stroke="none" stroke-width="1" fill="none" fill-rule="evenodd">
        <g id="画板" transform="translate(-315.000000, -231.000000)" fill-rule="nonzero">
            <g id="logo的副本" transform="translate(315.000000, 231.000000)">
                <g id="编组" transform="translate(35.663839, 6.000000)" fill="#070304">
                    <g id="组_1" transform="translate(32.017961, 7.002572)">
                        <polygon id="直线_3" points="5.48622284 0.754922862 5.48622284 29.9116548 0.153959494 29.9116548 0.153959494 0.754922862"></polygon>
                        <path d="M0.153959494,0.0503867184 L0.153959494,20.1012729 L9.47507483,20.1012729 C14.9554162,20.1012729 19.3981107,15.7746277 19.3981107,10.4374404 L19.3981107,9.7142192 C19.3981107,4.37703189 14.9554162,0.0503867184 9.47507483,0.0503867184 L0.153959494,0.0503867184 Z M5.48584664,14.9079292 L5.48584664,5.24299762 L9.47507483,5.243364 C12.0104885,5.243364 14.0658473,7.24503406 14.0658473,9.7142192 L14.0658473,10.4374404 C14.0658473,12.9066255 12.0104885,14.9082956 9.47507483,14.9082956 L5.48584664,14.9079292 Z" id="矩形_1"></path>
                    </g>
                    <path d="M63.2502051,6.90787461 C57.5138916,6.90787461 52.8636904,11.436606 52.8636904,17.0230792 C52.8636904,22.6095524 57.5138916,27.1382837 63.2502051,27.1382837 C68.9865188,27.1382837 73.6367198,22.6095524 73.6367198,17.0230792 C73.6367198,11.436606 68.9865188,6.90787461 63.2502051,6.90787461 Z M63.2502051,12.1008519 C66.0415911,12.1008519 68.3044565,14.3046081 68.3044565,17.0230792 C68.3044565,19.7415502 66.0415911,21.9453065 63.2502051,21.9453065 C60.4588191,21.9453065 58.1959538,19.7415502 58.1959538,17.0230792 C58.1959538,14.3046081 60.4588191,12.1008519 63.2502051,12.1008519 Z" id="椭圆_1"></path>
                    <g id="组_2" transform="translate(0.027289, 0.000000)">
                        <polygon id="直线_4" points="19.447118 0.0314113388 19.447118 27.1049438 14.1148547 27.1049438 14.1148547 0.0314113388"></polygon>
                        <polygon id="直线_5" points="5.50438181 0.04533353 5.50438181 27.0917543 0.172118469 27.0917543 0.172118469 0.04533353"></polygon>
                    </g>
                    <g id="组_3" transform="translate(0.725112, 6.881599)">
                        <path d="M0.0122668936,1.37121299 C5.63884702,-0.376037854 11.6733669,-0.420839157 17.320867,1.23680908 L17.7659038,1.37121299 L16.1459938,6.31875835 C11.5639963,4.89588709 6.65107921,4.85403794 2.04961581,6.19321088 L1.63217683,6.31875835 L0.0122668936,1.37121299 Z" id="路径_2"></path>
                    </g>
                    <polygon id="直线_1" points="28.5543782 7.0020326 28.5543782 27.104211 23.2221148 27.104211 23.2221148 7.0020326"></polygon>
                    <polygon id="直线_2" points="28.5543782 0.04533353 28.5543782 4.1758278 23.2221148 4.1758278 23.2221148 0.04533353"></polygon>
                </g>
                <polygon id="路径_3" fill="url(#linearGradient-1)" points="15.5746077 0 11.2655472 7.13833725 0.342738446 7.13833725 0.342738446 32.9992595 11.6963016 32.9992595 11.6963016 9.91962301 15.5768829 3.35516661 15.5768829 33 28.5996192 33 28.5996192 0"></polygon>
            </g>
        </g>
    </g>
</svg>