<svg xmlns="http://www.w3.org/2000/svg">
	<symbol id="icon__certificate" fill="none" viewBox="0 0 24 24">
		<path stroke="currentColor" stroke-linecap="round" stroke-linejoin="round" stroke-width="1.5" d="M20 9.806v8.13c0 1.282-1.023 2.322-2.286 2.322h-3.428M20 9.806h-3.429c-1.262 0-2.285-1.04-2.285-2.322V4M20 9.806L14.286 4m0 0h-8C5.023 4 4 5.04 4 6.323v11.613c0 1.282 1.023 2.322 2.286 2.322h3.428m0-1.742V22L12 21.005l2.286.995v-3.484m1.143-2.903c0 1.924-1.536 3.484-3.429 3.484-1.893 0-3.429-1.56-3.429-3.484s1.536-3.484 3.429-3.484c1.893 0 3.429 1.56 3.429 3.484z" />
	</symbol>
</svg>