<?xml version="1.0" encoding="UTF-8"?>
<svg width="24px" height="24px" viewBox="0 0 24 24" version="1.1" xmlns="http://www.w3.org/2000/svg" xmlns:xlink="http://www.w3.org/1999/xlink">
    <title>button/bonds/Select</title>
    <defs>
        <linearGradient x1="50%" y1="0%" x2="50%" y2="100%" id="linearGradient-1">
            <stop stop-color="#3B6AFF" offset="0%"></stop>
            <stop stop-color="#003EFF" offset="100%"></stop>
        </linearGradient>
        <linearGradient x1="50%" y1="0%" x2="50%" y2="100%" id="linearGradient-2">
            <stop stop-color="#C3D2FF" offset="0%"></stop>
            <stop stop-color="#FFFFFF" offset="100%"></stop>
        </linearGradient>
        <path d="M15.2840909,0 C15.6590909,0 15.9659091,0.346153846 15.9659091,0.769230757 L15.9659091,3.61538461 C15.9659091,3.73076922 15.8977273,3.88461537 15.7954545,3.92307692 C14.8068182,4.61538462 14.3295455,5.34615384 14.3295455,6.07692306 C14.3295455,6.53846153 14.8409091,7.19230769 15.8636364,8.15384614 C15.9318182,8.23076922 16,8.34615384 16,8.46153846 L16,11.2307692 C16,11.6538462 15.6931818,12 15.3181818,12 L0.681818172,12 C0.306818166,12 0,11.6538462 0,11.2307692 L0,8.53846154 C0,8.42307692 0.0681818236,8.30769231 0.136363631,8.23076922 C1.29545454,7.34615383 1.875,6.61538461 1.875,6 C1.84090909,5.5 1.26136363,4.88461538 0.136363631,4.15384615 C0.0681818076,4.07692307 0,3.96153846 0,3.80769231 L0,0.769230757 C0,0.346153828 0.306818182,0 0.681818172,0 L15.2840909,0 Z M5.56250001,4 L5.34375,4 C5.125,4 4.9375,4.16129031 4.90625001,4.3548387 L4.90625001,4.3548387 L4.03125,7.41935484 C4,7.4516129 4,7.51612903 4,7.54838709 C4,7.80645161 4.1875,8 4.43750001,8 L4.43750001,8 L4.65625,8 C4.84375,8 5.03125,7.83870967 5.09375001,7.64516128 L5.09375001,7.64516128 L5.96875,4.58064516 C6,4.54838709 6,4.48387095 6,4.45161289 C6,4.19354839 5.81250001,4 5.56250001,4 L5.56250001,4 Z M8.56250001,4 L8.34375,4 C8.125,4 7.9375,4.16129031 7.90625001,4.3548387 L7.90625001,4.3548387 L7.03125,7.41935484 C7,7.4516129 7,7.51612903 7,7.54838709 C7,7.80645161 7.1875,8 7.43750001,8 L7.43750001,8 L7.65625,8 C7.84375,8 8.03125,7.83870967 8.09375001,7.64516128 L8.09375001,7.64516128 L8.96875,4.58064516 C9,4.54838709 9,4.48387095 9,4.45161289 C9,4.19354839 8.81250001,4 8.56250001,4 L8.56250001,4 Z M11.5625,4 L11.34375,4 C11.15625,4 10.96875,4.16129031 10.90625,4.3548387 L10.90625,4.3548387 L10.03125,7.41935484 C10,7.4516129 10,7.51612903 10,7.54838709 C10,7.80645161 10.1875,8 10.4375,8 L10.4375,8 L10.65625,8 C10.84375,8 11.03125,7.83870967 11.09375,7.64516128 L11.09375,7.64516128 L11.96875,4.58064516 C12,4.54838709 12,4.48387095 12,4.45161289 C12,4.19354839 11.8125,4 11.5625,4 L11.5625,4 Z" id="path-3"></path>
        <filter x="-12.5%" y="-8.3%" width="125.0%" height="133.3%" filterUnits="objectBoundingBox" id="filter-4">
            <feOffset dx="0" dy="1" in="SourceAlpha" result="shadowOffsetOuter1"></feOffset>
            <feGaussianBlur stdDeviation="0.5" in="shadowOffsetOuter1" result="shadowBlurOuter1"></feGaussianBlur>
            <feColorMatrix values="0 0 0 0 0   0 0 0 0 0   0 0 0 0 0  0 0 0 0.27420236 0" type="matrix" in="shadowBlurOuter1"></feColorMatrix>
        </filter>
    </defs>
    <g id="button/bonds/Select" stroke="none" stroke-width="1" fill="none" fill-rule="evenodd">
        <g>
            <rect id="矩形" fill="url(#linearGradient-1)" x="0" y="0" width="24" height="24" rx="8"></rect>
            <g id="zhaijuan" transform="translate(4.422556, 6.000000)" fill-rule="nonzero">
                <g id="形状结合">
                    <use fill="black" fill-opacity="1" filter="url(#filter-4)" xlink:href="#path-3"></use>
                    <use fill="url(#linearGradient-2)" xlink:href="#path-3"></use>
                </g>
            </g>
        </g>
    </g>
</svg>