<?xml version="1.0" encoding="UTF-8"?>
<svg width="24px" height="24px" viewBox="0 0 24 24" version="1.1" xmlns="http://www.w3.org/2000/svg" xmlns:xlink="http://www.w3.org/1999/xlink">
    <title>button/collaterals</title>
    <g id="页面-1" stroke="none" stroke-width="1" fill="none" fill-rule="evenodd">
        <g id="画板" transform="translate(-209.000000, -315.000000)">
            <g id="button/collaterals" transform="translate(209.000000, 315.000000)">
                <rect id="矩形" fill="#EFEFEF" x="0" y="0" width="24" height="24" rx="8"></rect>
                <g id="xinyubaozhang" transform="translate(5.000000, 4.000000)" fill="#A9A9A9" fill-rule="nonzero">
                    <path d="M13.0294548,9.37231109 C12.6207091,11.941965 11.2847341,13.2922132 9.86463925,14.2794791 C8.57225355,15.1777261 6.7881495,16 6.7881495,16 C6.7881495,16 4.51500364,14.9521092 2.99702398,13.6386964 C1.13988867,12.0325188 0.639375985,9.91256384 0.443988668,7.7699705 C0.245542459,5.59054173 0.384340101,3.08189645 0.384340101,3.08189645 C0.384340101,3.08189645 1.68016707,2.99901677 2.40895024,2.29453944 C3.09567355,1.63035084 3.21802959,0.342646109 3.21802959,0.342646109 C3.21802959,0.342646109 5.04916424,0 6.84818043,0 C8.67931508,0 10.4783313,0.342646109 10.4783313,0.342646109 C10.4783313,0.342646109 10.5716278,1.6230605 11.2954402,2.3225497 C11.987899,2.99172642 13.3120208,3.08189645 13.3120208,3.08189645 C13.3120207,3.08189645 13.4619069,6.65531548 13.0294548,9.37231109 Z M6.84665097,1.37633995 C5.35696615,1.37633995 3.84089831,1.65989591 3.84089831,1.65989592 C3.84089831,1.65989594 3.73995458,2.72543706 3.17099899,3.27566608 C2.56801312,3.8588935 1.49510356,3.9275762 1.49510356,3.9275762 C1.49510356,3.9275762 1.38001241,6.00494017 1.54442834,7.80872444 C1.54863432,7.8547687 1.55513449,7.90004558 1.55972283,7.94608983 L6.95524196,7.94608983 L6.95524196,14.5480707 C7.36322289,14.3519989 8.48431013,13.7956306 9.34386134,13.1982062 C10.5196264,12.3809204 11.6258015,11.262812 11.9641925,9.1355668 C12.0246058,8.75646898 12.0701069,8.35741864 12.106049,7.95568239 L6.95600669,7.94685723 L6.95600669,1.37749106 L6.84665097,1.37633995 Z" id="形状"></path>
                </g>
            </g>
        </g>
    </g>
</svg>