<?xml version="1.0" encoding="UTF-8"?>
<svg width="24px" height="24px" viewBox="0 0 24 24" version="1.1" xmlns="http://www.w3.org/2000/svg" xmlns:xlink="http://www.w3.org/1999/xlink">
    <title>button/issue bonds</title>
    <g id="页面-1" stroke="none" stroke-width="1" fill="none" fill-rule="evenodd">
        <g id="画板" transform="translate(-209.000000, -112.000000)">
            <g id="button/issue-bonds" transform="translate(209.000000, 112.000000)">
                <rect id="矩形" fill="#EFEFEF" x="0" y="0" width="24" height="24" rx="8"></rect>
                <g id="qiandai" transform="translate(4.800000, 3.600000)" fill="#A9A9A9" fill-rule="nonzero">
                    <path d="M10.5671217,5.34929476 C12.8284983,6.68809349 14.4,9.30510271 14.4,12.332186 C14.4,15.9383933 11.1675146,16.8 7.28473287,16.8 C3.40093889,16.8 0,15.9790315 0,12.37435 C0,9.10655433 1.82105247,6.62292789 3.9635247,5.34929476 L3.9635247,5.34929476 Z M8.00000621,7.2 L6.39999371,7.2 L6.39999371,8.59999453 L5.6,8.59999453 C4.49543327,8.59999455 3.6,9.38349868 3.6,10.35 C3.6,11.3165013 4.49543327,12.1000054 5.6,12.1000055 L8.79999371,12.1000055 C8.94289772,12.1000055 9.07494647,12.166714 9.14639848,12.2750027 C9.21785048,12.3832914 9.21785048,12.5167086 9.14639848,12.6249973 C9.07494647,12.733286 8.94289772,12.7999945 8.79999371,12.7999945 L3.72800621,12.7999945 L3.72800621,14.2 L6.39999371,14.2 L6.39999371,15.6 L8.00000621,15.6 L8.00000621,14.2 L8.79999371,14.2 C9.90456666,14.2 10.8,13.4165013 10.8,12.45 C10.8,11.4834987 9.90456666,10.7 8.79999371,10.7 L5.6,10.7 C5.37909576,10.7 5.20001246,10.5432966 5.20001246,10.35 C5.20001246,10.1567034 5.37909576,10.0000055 5.6,10.0000055 L9.99999371,10.0000055 L9.99999371,8.59999453 L8.00000621,8.59999453 L8.00000621,7.2 Z M10.2051449,4.13241083 C10.4203469,4.13241083 10.5946377,4.27749125 10.5946377,4.45648337 C10.5946377,4.63508174 10.4195372,4.77996528 10.2051111,4.77996528 L4.19605296,4.77996528 C3.98086774,4.77996528 3.8053623,4.63508174 3.8053623,4.45648337 C3.8053623,4.27744203 3.98086774,4.13241083 4.19605296,4.13241083 L10.2051449,4.13241083 Z M6.73469884,0.0827263494 C7.44680928,0.581574606 7.61355885,1.75898512 7.79805636,1.75898512 C8.11298091,1.75898512 7.78945232,0.224919269 9.35386836,0.224919269 C10.9167154,0.224919269 11.5406935,0.571780075 11.3345172,1.66604374 C11.1169195,2.82140427 10.1807836,3.91606167 9.92790934,3.94706949 L4.43343998,3.96242574 C4.16482538,3.96242574 3.02727071,2.69740588 3.02727071,1.72753435 C3.02727071,0.709177386 3.80416288,0.652877611 4.52552649,0.650726662 L4.84358252,0.65034959 L4.84358252,0.65034959 C5.51817263,0.644033184 6.22363601,-0.275241488 6.73469884,0.0827263494 Z" id="形状结合"></path>
                </g>
            </g>
        </g>
    </g>
</svg>