<?xml version="1.0" encoding="UTF-8"?>
<svg width="24px" height="24px" viewBox="0 0 24 24" version="1.1" xmlns="http://www.w3.org/2000/svg" xmlns:xlink="http://www.w3.org/1999/xlink">
    <title>button/issue bonds/Select</title>
    <defs>
        <linearGradient x1="50%" y1="0%" x2="50%" y2="100%" id="linearGradient-1">
            <stop stop-color="#3B6AFF" offset="0%"></stop>
            <stop stop-color="#003EFF" offset="100%"></stop>
        </linearGradient>
        <linearGradient x1="50%" y1="0%" x2="50%" y2="100%" id="linearGradient-2">
            <stop stop-color="#C3D2FF" offset="0%"></stop>
            <stop stop-color="#FFFFFF" offset="100%"></stop>
        </linearGradient>
        <path d="M15.3671217,8.94929476 C17.6284983,10.2880935 19.2,12.9051027 19.2,15.932186 C19.2,19.5383933 15.9675146,20.4 12.0847329,20.4 C8.20093889,20.4 4.8,19.5790315 4.8,15.97435 C4.8,12.7065543 6.62105247,10.2229279 8.7635247,8.94929476 L8.7635247,8.94929476 Z M12.8000062,10.8 L11.1999937,10.8 L11.1999937,12.1999945 L10.4,12.1999945 C9.29543327,12.1999946 8.4,12.9834987 8.4,13.95 C8.4,14.9165013 9.29543327,15.7000054 10.4,15.7000055 L13.5999937,15.7000055 C13.7428977,15.7000055 13.8749465,15.766714 13.9463985,15.8750027 C14.0178505,15.9832914 14.0178505,16.1167086 13.9463985,16.2249973 C13.8749465,16.333286 13.7428977,16.3999945 13.5999937,16.3999945 L8.52800621,16.3999945 L8.52800621,17.8 L11.1999937,17.8 L11.1999937,19.2 L12.8000062,19.2 L12.8000062,17.8 L13.5999937,17.8 C14.7045667,17.8 15.6,17.0165013 15.6,16.05 C15.6,15.0834987 14.7045667,14.3 13.5999937,14.3 L10.4,14.3 C10.1790958,14.3 10.0000125,14.1432966 10.0000125,13.95 C10.0000125,13.7567034 10.1790958,13.6000055 10.4,13.6000055 L14.7999937,13.6000055 L14.7999937,12.1999945 L12.8000062,12.1999945 L12.8000062,10.8 Z M15.0051449,7.73241083 C15.2203469,7.73241083 15.3946377,7.87749125 15.3946377,8.05648337 C15.3946377,8.23508174 15.2195372,8.37996528 15.0051111,8.37996528 L8.99605296,8.37996528 C8.78086774,8.37996528 8.6053623,8.23508174 8.6053623,8.05648337 C8.6053623,7.87744203 8.78086774,7.73241083 8.99605296,7.73241083 L15.0051449,7.73241083 Z M11.5346988,3.68272635 C12.2468093,4.18157461 12.4135589,5.35898512 12.5980564,5.35898512 C12.9129809,5.35898512 12.5894523,3.82491927 14.1538684,3.82491927 C15.7167154,3.82491927 16.3406935,4.17178008 16.1345172,5.26604374 C15.9169195,6.42140427 14.9807836,7.51606167 14.7279093,7.54706949 L9.23343998,7.56242574 C8.96482538,7.56242574 7.82727071,6.29740588 7.82727071,5.32753435 C7.82727071,4.30917739 8.60416288,4.25287761 9.32552649,4.25072666 L9.64358252,4.25034959 L9.64358252,4.25034959 C10.3181726,4.24403318 11.023636,3.32475851 11.5346988,3.68272635 Z" id="path-3"></path>
        <filter x="-13.9%" y="-6.0%" width="127.8%" height="123.8%" filterUnits="objectBoundingBox" id="filter-4">
            <feOffset dx="0" dy="1" in="SourceAlpha" result="shadowOffsetOuter1"></feOffset>
            <feGaussianBlur stdDeviation="0.5" in="shadowOffsetOuter1" result="shadowBlurOuter1"></feGaussianBlur>
            <feColorMatrix values="0 0 0 0 0   0 0 0 0 0   0 0 0 0 0  0 0 0 0.27420236 0" type="matrix" in="shadowBlurOuter1"></feColorMatrix>
        </filter>
    </defs>
    <g id="button/issue-bonds/Select" stroke="none" stroke-width="1" fill="none" fill-rule="evenodd">
        <g>
            <rect id="矩形" fill="url(#linearGradient-1)" x="0" y="0" width="24" height="24" rx="8"></rect>
            <g id="形状结合备份" fill-rule="nonzero">
                <use fill="black" fill-opacity="1" filter="url(#filter-4)" xlink:href="#path-3"></use>
                <use fill="url(#linearGradient-2)" xlink:href="#path-3"></use>
            </g>
        </g>
    </g>
</svg>