<?xml version="1.0" encoding="UTF-8"?>
<svg width="24px" height="24px" viewBox="0 0 24 24" version="1.1" xmlns="http://www.w3.org/2000/svg" xmlns:xlink="http://www.w3.org/1999/xlink">
    <title>button/pools/Select</title>
    <defs>
        <linearGradient x1="50%" y1="0%" x2="50%" y2="100%" id="linearGradient-1">
            <stop stop-color="#3B6AFF" offset="0%"></stop>
            <stop stop-color="#003EFF" offset="100%"></stop>
        </linearGradient>
        <linearGradient x1="50%" y1="0%" x2="50%" y2="100%" id="linearGradient-2">
            <stop stop-color="#D1DDFF" offset="0%"></stop>
            <stop stop-color="#FFFFFF" offset="100%"></stop>
        </linearGradient>
        <path d="M20,10 L20,16.75 C20,17.9926407 18.6568542,19 17,19 L7,19 C5.34314575,19 4,17.9926407 4,16.75 L4,10 C5.33333333,9.20020004 6.66666667,8.80030006 8,8.80030006 C9.33333333,8.80030006 10.6256328,9.2340317 11.8768984,10.101495 C13.2964024,11.1843035 14.602395,11.7257077 15.7948764,11.7257077 C16.9873577,11.7257077 18.3890656,11.1504718 20,10 Z" id="path-3"></path>
        <filter x="-12.5%" y="-9.8%" width="125.0%" height="139.2%" filterUnits="objectBoundingBox" id="filter-4">
            <feOffset dx="0" dy="1" in="SourceAlpha" result="shadowOffsetOuter1"></feOffset>
            <feGaussianBlur stdDeviation="0.5" in="shadowOffsetOuter1" result="shadowBlurOuter1"></feGaussianBlur>
            <feColorMatrix values="0 0 0 0 0   0 0 0 0 0   0 0 0 0 0  0 0 0 0.27420236 0" type="matrix" in="shadowBlurOuter1"></feColorMatrix>
        </filter>
        <linearGradient x1="50%" y1="0%" x2="50%" y2="100%" id="linearGradient-5">
            <stop stop-color="#C4D3FF" offset="0%"></stop>
            <stop stop-color="#FFFFFF" offset="100%"></stop>
        </linearGradient>
    </defs>
    <g id="button/pools/Select" stroke="none" stroke-width="1" fill="none" fill-rule="evenodd">
        <g>
            <rect id="矩形" fill="url(#linearGradient-1)" x="0" y="0" width="24" height="24" rx="8"></rect>
            <g id="路径" fill-rule="nonzero">
                <use fill="black" fill-opacity="1" filter="url(#filter-4)" xlink:href="#path-3"></use>
                <use fill="url(#linearGradient-2)" xlink:href="#path-3"></use>
            </g>
            <path d="M20,7 L20,16 C20,17.6568542 18.6568542,19 17,19 L7,19 C5.34314575,19 4,17.6568542 4,16 L4,7" id="路径" stroke="url(#linearGradient-5)" stroke-width="2" stroke-linecap="round"></path>
        </g>
    </g>
</svg>