<?xml version="1.0" encoding="UTF-8"?>
<svg width="24px" height="24px" viewBox="0 0 24 24" version="1.1" xmlns="http://www.w3.org/2000/svg" xmlns:xlink="http://www.w3.org/1999/xlink">
    <title>button/purchase bonds</title>
    <g id="页面-1" stroke="none" stroke-width="1" fill="none" fill-rule="evenodd">
        <g id="画板" transform="translate(-209.000000, -162.000000)">
            <g id="button/purchase-bonds" transform="translate(209.000000, 162.000000)">
                <rect id="矩形" fill="#EFEFEF" x="0" y="0" width="24" height="24" rx="8"></rect>
                <g id="jizhunlishuai" transform="translate(4.544444, 2.400000)" fill="#A9A9A9" fill-rule="nonzero">
                    <path d="M2.91474881,7.80727959 L1.22713155,7.80727959 C0.803585573,7.80342752 0.458838864,8.20692766 0.455555556,8.70742299 L0.455555556,16.6998292 C0.455555556,17.1964448 0.803585573,17.5999726 1.22713155,17.5999726 L2.91474881,17.5999726 C3.33829478,17.6038247 3.68304149,17.2003246 3.68632479,16.6998292 L3.68632479,8.70742299 C3.68304148,8.20692764 3.33829477,7.80342752 2.91474881,7.80727959 Z M8.29936418,7.80727959 L6.61174693,7.80727959 C6.18820096,7.80342752 5.84345425,8.20692766 5.84017094,8.70742299 L5.84017094,16.6998292 C5.84017094,17.1964448 6.18820096,17.5999726 6.61174693,17.5999726 L8.29936418,17.5999726 C8.72291015,17.6038247 9.06765686,17.2003246 9.07094017,16.6998292 L9.07094017,8.70742299 C9.06765686,8.20692764 8.72291015,7.80342752 8.29936418,7.80727959 Z M13.6839796,7.80727959 L11.9963623,7.80727959 C11.5728163,7.80342752 11.2280696,8.20692766 11.2247863,8.70742299 L11.2247863,16.6998292 C11.2247863,17.1964448 11.5728163,17.5999726 11.9963623,17.5999726 L13.6839796,17.5999726 C14.1075255,17.6038247 14.4522722,17.2003246 14.4555556,16.6998292 L14.4555556,8.70742299 C14.4522722,8.20692764 14.1075255,7.80342752 13.6839796,7.80727959 Z M10.4555556,0.6 L14.4555556,4.10987772 L10.4555556,7.6 L10.4555556,5.864 L0.455555556,5.86423102 L0.455555556,2.6 L10.4555556,2.6 L10.4555556,0.6 Z" id="形状"></path>
                </g>
            </g>
        </g>
    </g>
</svg>