<?xml version="1.0" encoding="UTF-8"?>
<svg width="16px" height="17px" viewBox="0 0 16 17" version="1.1" xmlns="http://www.w3.org/2000/svg" xmlns:xlink="http://www.w3.org/1999/xlink">
    <title>wangluo-2</title>
    <g id="页面-1" stroke="none" stroke-width="1" fill="none" fill-rule="evenodd">
        <g id="画板" transform="translate(-392.000000, -408.000000)" fill-rule="nonzero">
            <g id="wangluo-2" transform="translate(392.000000, 408.000000)">
                <path d="M13.0568764,9.92881884 C12.8587469,10.5632144 12.5348812,11.1404572 12.1119509,11.6319709 C11.5785252,11.281434 10.9784213,11.0090059 10.3345002,10.824212 C10.4411854,10.2145826 10.5078636,9.54780048 10.5231043,8.84291652 L13.9541746,8.84291652 C13.961795,8.72861101 13.9656052,8.61430551 13.9656052,8.5 C13.9656052,8.3837894 13.9598899,8.2675788 13.9541746,8.15327329 L13.2607212,8.15327329 L13.2607212,8.15708348 L10.5231043,8.15708348 C10.5078636,7.45029442 10.4411854,6.7835123 10.3345002,6.17578802 C10.9784213,5.99099411 11.5785252,5.71856599 12.1119509,5.3680291 C12.5348812,5.85954278 12.8587469,6.4348805 13.0549713,7.06737097 L13.7770011,7.06737097 C13.1464157,4.72410807 11.0089027,3 8.46751028,3 C5.92611783,3 3.78860484,4.72410807 3.15801946,7.06737097 L3.88004924,7.06737097 C4.0762737,6.4348805 4.4001393,5.85954278 4.82116459,5.3680291 C5.35459029,5.71856599 5.9546942,5.98908902 6.60052032,6.17388292 C6.49383518,6.7835123 6.42715697,7.45029442 6.41191623,8.15708348 L3.67048915,8.15708348 L3.67048915,8.15327329 L2.97703574,8.15327329 C2.96941537,8.2675788 2.96560518,8.3837894 2.96560518,8.5 C2.96560518,8.6162106 2.96941537,8.73051611 2.97703574,8.84291652 L6.41001114,8.84291652 C6.42525188,9.54970558 6.49193009,10.2164877 6.59861523,10.8261171 C5.95278911,11.010911 5.3526852,11.281434 4.8192595,11.6319709 C4.39632912,11.1404572 4.07246352,10.5632144 3.87623906,9.92881884 L3.15420927,9.92881884 C3.78288956,12.2720817 5.92230764,14 8.46560518,14 C11.0089027,14 13.1464157,12.2739868 13.7770011,9.92881884 L13.0568764,9.92881884 L13.0568764,9.92881884 Z M11.616627,4.86889505 C11.1841712,5.1356079 10.704088,5.34897818 10.1935234,5.49948043 C10.0258754,4.81555248 9.80297962,4.24021476 9.54198205,3.81347419 C10.3230697,3.99064773 11.0317638,4.36023554 11.616627,4.86889505 L11.616627,4.86889505 Z M7.09774928,8.15517839 C7.11299001,7.47125043 7.17585804,6.86162106 7.26920754,6.33010045 C7.65784627,6.39868375 8.05601045,6.43678559 8.46751028,6.43678559 C8.87710501,6.43678559 9.27717429,6.40058885 9.66581301,6.33200554 C9.75725742,6.86352615 9.82012545,7.47315552 9.83727127,8.15708348 L7.09774928,8.15708348 L7.09774928,8.15517839 Z M9.83346109,8.84291652 C9.81822036,9.52493938 9.75535233,10.1364738 9.66200283,10.6679945 C9.2752692,10.5994112 8.87519992,10.5632144 8.46560518,10.5632144 C8.05601045,10.5632144 7.65594117,10.6013162 7.26730245,10.6698995 C7.17585804,10.1383789 7.11299001,9.52874957 7.09584419,8.84482161 L9.83346109,8.84482161 L9.83346109,8.84291652 Z M8.46560518,3.68773814 C8.71898239,3.68773814 9.20287571,4.36595081 9.52483622,5.65760305 C9.1819197,5.71666089 8.82947772,5.74904745 8.46560518,5.74904745 C8.10363774,5.74904745 7.74929067,5.71666089 7.40827924,5.65760305 C7.73023975,4.36595081 8.21413307,3.68773814 8.46560518,3.68773814 L8.46560518,3.68773814 Z M5.31648845,4.86889505 C5.90135163,4.36023554 6.61004578,3.99255282 7.38922832,3.81347419 C7.12823075,4.24021476 6.90533501,4.81555248 6.73768693,5.49948043 C6.22902742,5.34897818 5.75084938,5.1356079 5.31648845,4.86889505 Z M5.31648845,12.131105 C5.74894429,11.8643921 6.22712233,11.6510218 6.73768693,11.5005196 C6.90533501,12.1825424 7.12823075,12.7597852 7.38922832,13.1865258 C6.61004578,13.0074472 5.90325673,12.6397645 5.31648845,12.131105 Z M8.46560518,13.3122619 C8.21222798,13.3122619 7.72833466,12.6340492 7.40827924,11.342397 C7.75119576,11.2833391 8.10363774,11.2509525 8.46560518,11.2509525 C8.82757262,11.2509525 9.1819197,11.2833391 9.52483622,11.342397 C9.20287571,12.6340492 8.71898239,13.3122619 8.46560518,13.3122619 L8.46560518,13.3122619 Z M9.54198205,13.1865258 C9.80297962,12.7597852 10.0277805,12.1844475 10.1935234,11.5005196 C10.7059931,11.6510218 11.1822661,11.862487 11.616627,12.1291999 C11.0317638,12.6378594 10.3230697,13.0074472 9.54198205,13.1865258 L9.54198205,13.1865258 Z" id="形状" fill="#666666"></path>
                <path d="M1.96560518,8.5 C1.96560518,9.05228475 2.41332043,9.5 2.96560518,9.5 C3.51788993,9.5 3.96560518,9.05228475 3.96560518,8.5 C3.96560518,7.94771525 3.51788993,7.5 2.96560518,7.5 C2.41332043,7.5 1.96560518,7.94771525 1.96560518,8.5 Z" id="路径" fill="#FFFFFF"></path>
                <path d="M2.96560518,9.5 C2.41374608,9.5 1.96560518,9.0518591 1.96560518,8.5 C1.96560518,7.9481409 2.41374608,7.5 2.96560518,7.5 C3.51746428,7.5 3.96560518,7.9481409 3.96560518,8.5 C3.96560518,9.0518591 3.51746428,9.5 2.96560518,9.5 Z M2.96560518,8.05772994 C2.72098679,8.05772994 2.52333513,8.2553816 2.52333513,8.5 C2.52333513,8.7446184 2.72098679,8.94227006 2.96560518,8.94227006 C3.21022358,8.94227006 3.40787524,8.7446184 3.40787524,8.5 C3.40787524,8.2553816 3.21022358,8.05772994 2.96560518,8.05772994 L2.96560518,8.05772994 Z" id="形状" fill="#666666"></path>
                <path d="M12.9656052,8 C12.9656052,8.55228475 13.4133204,9 13.9656052,9 C14.5178899,9 14.9656052,8.55228475 14.9656052,8 C14.9656052,7.44771525 14.5178899,7 13.9656052,7 C13.4133204,7 12.9656052,7.44771525 12.9656052,8 Z" id="路径" fill="#FFFFFF"></path>
                <path d="M13.9656052,9.5 C13.4137461,9.5 12.9656052,9.0518591 12.9656052,8.5 C12.9656052,7.9481409 13.4137461,7.5 13.9656052,7.5 C14.5174643,7.5 14.9656052,7.9481409 14.9656052,8.5 C14.9656052,9.0518591 14.5155073,9.5 13.9656052,9.5 Z M13.9656052,8.05772994 C13.7209868,8.05772994 13.5233351,8.2553816 13.5233351,8.5 C13.5233351,8.7446184 13.7209868,8.94227006 13.9656052,8.94227006 C14.2102236,8.94227006 14.4078752,8.7446184 14.4078752,8.5 C14.4078752,8.2553816 14.2082666,8.05772994 13.9656052,8.05772994 L13.9656052,8.05772994 Z" id="形状" fill="#666666"></path>
                <path d="M8.15383758,1.53478905 C8.25745174,1.53108808 8.36291615,1.52738712 8.46653031,1.52738712 C12.3113558,1.52738712 15.4382831,4.65470022 15.4382831,8.5 C15.4382831,10.6595115 14.4520983,12.5914138 12.9071372,13.8719467 L13.1051143,14.3863805 C14.8443519,13.011473 15.9656052,10.8852702 15.9656052,8.5 C15.9656052,4.36417469 12.6018455,1 8.46653031,1 C8.29445679,1 8.12423353,1.00740192 7.95401027,1.02035529 L8.15383758,1.53478905 L8.15383758,1.53478905 Z M8.35366489,15.4707624 C4.56064651,15.4096965 1.4947775,12.3082902 1.4947775,8.5 C1.4947775,6.49407846 2.34774408,4.68430792 3.70582968,3.41117691 L3.50230187,2.88378979 C1.94808946,4.25869726 0.965605185,6.26646928 0.965605185,8.5 C0.965605185,12.6358253 4.3293649,16 8.46468006,16 C8.4942841,16 8.5257384,15.9981495 8.55534245,15.9981495 L8.35366489,15.4707624 Z" id="形状" fill="#666666"></path>
                <path d="M6.96560518,16 C6.96560518,16.5522847 7.41332043,17 7.96560518,17 C8.51788993,17 8.96560518,16.5522847 8.96560518,16 C8.96560518,15.4477153 8.51788993,15 7.96560518,15 C7.41332043,15 6.96560518,15.4477153 6.96560518,16 Z" id="路径" fill="#FFFFFF"></path>
                <path d="M7.96560518,17 C7.41374608,17 6.96560518,16.5518591 6.96560518,16 C6.96560518,15.4481409 7.41374608,15 7.96560518,15 C8.51746428,15 8.96560518,15.4481409 8.96560518,16 C8.96560518,16.5499022 8.51746428,17 7.96560518,17 L7.96560518,17 Z M7.96560518,15.555773 C7.72098679,15.555773 7.52333513,15.7534247 7.52333513,15.9980431 C7.52333513,16.2426614 7.72098679,16.4403131 7.96560518,16.4403131 C8.21022358,16.4403131 8.40787524,16.2426614 8.40787524,15.9980431 C8.40787524,15.7553816 8.21022358,15.555773 7.96560518,15.555773 L7.96560518,15.555773 Z" id="形状" fill="#666666"></path>
                <path d="M6.96560518,1 C6.96560518,1.55228475 7.41332043,2 7.96560518,2 C8.51788993,2 8.96560518,1.55228475 8.96560518,1 C8.96560518,0.44771525 8.51788993,0 7.96560518,0 C7.41332043,0 6.96560518,0.44771525 6.96560518,1 Z" id="路径" fill="#FFFFFF"></path>
                <path d="M7.96560518,2 C7.41374608,2 6.96560518,1.5518591 6.96560518,1 C6.96560518,0.4481409 7.41374608,0 7.96560518,0 C8.51746428,0 8.96560518,0.4481409 8.96560518,1 C8.96560518,1.5518591 8.51746428,2 7.96560518,2 L7.96560518,2 Z M7.96560518,0.557729941 C7.72098679,0.557729941 7.52333513,0.755381605 7.52333513,1 C7.52333513,1.2446184 7.72098679,1.44227006 7.96560518,1.44227006 C8.21022358,1.44227006 8.40787524,1.2446184 8.40787524,1 C8.40787524,0.755381605 8.21022358,0.557729941 7.96560518,0.557729941 L7.96560518,0.557729941 Z" id="形状" fill="#666666"></path>
            </g>
        </g>
    </g>
</svg>