<?xml version="1.0" encoding="UTF-8"?>
<svg width="14px" height="16px" viewBox="0 0 14 16" version="1.1" xmlns="http://www.w3.org/2000/svg" xmlns:xlink="http://www.w3.org/1999/xlink">
    <title>wangluo</title>
    <g id="页面-1" stroke="none" stroke-width="1" fill="none" fill-rule="evenodd">
        <g id="画板" transform="translate(-325.000000, -408.000000)" fill="#666666" fill-rule="nonzero">
            <g id="wangluo" transform="translate(325.000000, 408.000000)">
                <path d="M8.96307732,7.75882068 L8.99272795,7.76414849 C9.0100449,7.76960021 9.03608264,7.77777778 9.07009364,7.77777778 C9.28175921,7.77777778 9.46041044,7.63987421 9.50364055,7.44522326 C9.55447018,7.25912159 9.57826543,7.06224039 9.57826543,6.82595818 C9.57826543,5.42077905 8.44419145,4.27777778 7.05048765,4.27777778 C5.65678386,4.27777778 4.52270987,5.413221 4.52270987,6.80885962 C4.52270987,7.03076914 4.54650512,7.22554399 4.5955906,7.40470712 C4.65426893,7.61769565 4.82656645,7.7500236 5.04508406,7.7500236 C5.07859674,7.7500236 5.10949318,7.74667823 5.15658535,7.73738554 C5.39615738,7.67171717 5.52958518,7.44373643 5.47962762,7.17709808 C5.4507245,7.07822383 5.43540085,6.95085198 5.43540085,6.80885962 C5.43540085,5.9136635 6.15997235,5.18536416 7.05061223,5.18536416 C7.94125212,5.18536416 8.66582361,5.9136635 8.66582361,6.80885962 C8.66582361,6.93784221 8.64900498,7.06868333 8.6133744,7.21352544 C8.57101637,7.46777353 8.71304036,7.69141768 8.96307732,7.75882068 L8.96307732,7.75882068 Z" id="路径"></path>
                <path d="M9.9290436,9.38822658 C9.95499121,9.49931378 10.0226964,9.59510813 10.1126079,9.64967299 C10.1832095,9.69714196 10.2693797,9.72222222 10.3614636,9.72222222 C10.5103908,9.72222222 10.6534044,9.64563568 10.7341438,9.52304827 C11.2499582,8.75620406 11.5227099,7.85527224 11.5227099,6.91763759 C11.5227099,4.38991454 9.51641618,2.33333333 7.05042731,2.33333333 C4.58443844,2.33333333 2.57826543,4.38991454 2.57826543,6.91763759 C2.57826543,7.84389436 2.85041367,8.73809734 3.36490055,9.50286172 C3.44764601,9.62727795 3.58570079,9.70219844 3.73371874,9.70301441 C3.82556123,9.70301441 3.91474861,9.67365216 3.97497121,9.62520444 C4.08322707,9.55130944 4.15382872,9.4418127 4.17362132,9.31690077 C4.19256911,9.19908473 4.16565601,9.08236977 4.10181281,9.00003312 C3.68363381,8.37339368 3.462536,7.64741195 3.462536,6.90063195 C3.462536,4.86705117 5.0721329,3.2126105 7.05042731,3.2126105 C9.02896309,3.2126105 10.6384393,4.86692883 10.6384393,6.90063195 C10.6384393,7.64716726 10.4184277,8.37192556 10.0012142,8.99832032 C9.92445751,9.12029601 9.89875126,9.25878798 9.9290436,9.38822658 L9.9290436,9.38822658 Z" id="路径"></path>
                <path d="M7.05054807,0 C3.29788821,0 0.244932096,3.02720774 0.244932096,6.74809816 C0.244932096,8.57091747 0.957687317,10.2722315 2.25159545,11.538451 C2.33497983,11.6211321 2.44555478,11.6666667 2.56313885,11.6666667 C2.68060207,11.6666667 2.79081447,11.621252 2.87335293,11.53917 C2.96126385,11.4522938 3.00906395,11.3332594 3.00543863,11.2102429 C3.00145068,11.096766 2.95419953,10.9929952 2.87879104,10.9280486 C1.75116829,9.82647234 1.13013589,8.34192669 1.13013589,6.74821799 C1.13013589,3.51119191 3.78598898,0.877738063 7.05042723,0.877738064 C10.3148655,0.877738064 12.9707186,3.51131174 12.9707186,6.74821799 C12.9707186,8.32563012 12.3575412,9.80238697 11.2440576,10.9064796 C11.0642373,11.0850229 11.0642373,11.3440904 11.2440576,11.5226337 C11.3228498,11.6006416 11.436325,11.6454572 11.5549967,11.6454572 L11.5551176,11.6454572 C11.6735476,11.6454572 11.7862978,11.6010011 11.864244,11.5235924 C13.1487261,10.2667194 13.8560432,8.57055799 13.8560432,6.74809816 C13.8560432,3.02720774 10.8032079,0 7.05054807,0 Z" id="路径"></path>
                <path d="M7.64494655,9.11676823 C7.58773189,9.03087073 7.53110224,8.9719998 7.46242125,8.92687717 L7.39760136,8.88457471 L7.39760136,7.34887781 C7.39760136,7.15651911 7.24175284,7 7.05010127,7 C6.85844971,7 6.70260119,7.15651911 6.70260118,7.34887781 L6.70260118,8.86506857 L6.64164242,8.90795857 C6.56605822,8.96060164 6.50615248,9.03592352 6.45326695,9.10231488 L3.07701692,14.4561616 C2.93825089,14.6649712 2.93052866,14.9505128 3.05619031,15.184704 C3.18068193,15.417015 3.4107106,15.5555556 3.67139417,15.5555556 L10.4286914,15.5555556 C10.6894919,15.5555556 10.9192866,15.417015 11.0436612,15.184939 C11.1702589,14.9493378 11.1632387,14.6843598 11.0244727,14.4578067 L7.64494655,9.11676823 L7.64494655,9.11676823 Z M7.05021828,9.47645667 L8.18538524,11.286062 L5.91505132,11.286062 L7.05021828,9.47645667 Z M3.65653474,14.8579174 L5.4631842,11.9839351 L8.61958485,11.9839351 L10.4439018,14.8579174 L3.65653474,14.8579174 Z" id="形状"></path>
            </g>
        </g>
    </g>
</svg>