<?xml version="1.0" encoding="UTF-8"?>
<svg width="14px" height="12px" viewBox="0 0 14 12" version="1.1" xmlns="http://www.w3.org/2000/svg" xmlns:xlink="http://www.w3.org/1999/xlink">
    <title>lingqianbao</title>
    <g id="页面-1" stroke="none" stroke-width="1" fill="none" fill-rule="evenodd">
        <g id="画板" transform="translate(-359.000000, -410.000000)" fill-rule="nonzero">
            <g id="lingqianbao" transform="translate(359.000000, 410.000000)">
                <path d="M11.5555555,12 L2.52777777,12 C1.13238462,11.9983468 0.00159200121,10.8240621 0,9.37499999 L0,2.62499999 C0.00159201054,1.17593788 1.13238462,0.00165324171 2.52777777,0 L11.5555555,0 C11.7549917,0 11.9166667,0.16789322 11.9166667,0.375000003 C11.9166667,0.582106785 11.7549917,0.750000005 11.5555555,0.750000005 L2.52777777,0.750000005 C1.53092709,0.750827163 0.723018742,1.5898089 0.722222211,2.62499999 L0.722222211,9.37499999 C0.723018733,10.4101911 1.53092709,11.2491728 2.52777777,11.25 L11.5555555,11.25 C11.9544279,11.25 12.2777778,10.9142136 12.2777778,10.5 L12.2777778,10.09125 C12.2777778,9.88414321 12.4394527,9.71624999 12.6388889,9.71624999 C12.838325,9.71624999 13,9.88414321 13,10.09125 L13,10.5 C12.9988068,11.3279133 12.3528054,11.9987609 11.5555555,12 L11.5555555,12 Z" id="路径" fill="#666666"></path>
                <path d="M12.875,4.52774721 C12.6678932,4.52774721 12.5,4.34867902 12.5,4.12778722 L12.5,3.59984001 C12.5,3.15805639 12.1642136,2.79992 11.75,2.79992 L2.37499999,2.79992 C2.16789322,2.79992 2,2.62085181 2,2.39996 C2,2.17906819 2.16789322,2 2.37499999,2 L11.75,2 C12.5779133,2.00132155 13.2487609,2.71682075 13.25,3.59984001 L13.25,4.12778722 C13.25,4.23386321 13.2104912,4.3355946 13.140165,4.41060165 C13.0698389,4.4856087 12.9744562,4.52774721 12.875,4.52774721 L12.875,4.52774721 Z M12.875,10 L9.5,10 C8.25735931,10 7.24999999,8.92559084 7.24999999,7.60023997 C7.24999999,6.27488911 8.25735931,5.20047995 9.5,5.20047995 L12.875,5.20047995 C13.4959777,5.20136126 13.9991737,5.73804992 14,6.40035996 L14,8.80011999 C13.9991737,9.46243002 13.4959777,9.99911868 12.875,10 L12.875,10 Z M9.5,6.00039996 C8.67157287,6.00039996 8,6.71667273 8,7.60023997 C8,8.48380721 8.67157287,9.20007999 9.5,9.20007999 L12.875,9.20007999 C13.0819356,9.19963989 13.2495874,9.02082925 13.25,8.80011999 L13.25,6.40035996 C13.2495874,6.1796507 13.0819356,6.00084006 12.875,6.00039996 L9.5,6.00039996 Z" id="形状" fill="#666666"></path>
                <path d="M10,8 C9.44801978,7.99955446 9.00073451,7.72824222 9,7.39342461 C9.01681381,7.25350092 9.14669901,7.12769283 9.34688791,7.05742553 C9.5470768,6.98715824 9.79162148,6.98153959 10,7.04241965 C10.2083233,6.98111662 10.4532255,6.98653399 10.6536341,7.05687839 C10.8540426,7.12722279 10.9838182,7.25331918 11,7.39342461 C10.9992655,7.72824222 10.5519802,7.99955446 10,8 L10,8 Z" id="路径" fill="#757575" transform="translate(10.000000, 7.500000) rotate(-270.000000) translate(-10.000000, -7.500000) "></path>
            </g>
        </g>
    </g>
</svg>